<?xml version="1.0" standalone="no"?>
<!DOCTYPE svg PUBLIC "-//W3C//DTD SVG 20010904//EN"
 "http://www.w3.org/TR/2001/REC-SVG-20010904/DTD/svg10.dtd">
<svg version="1.0" xmlns="http://www.w3.org/2000/svg"
 width="476.000000pt" height="524.000000pt" viewBox="0 0 476.000000 524.000000"
 preserveAspectRatio="xMidYMid meet">

<g transform="translate(0.000000,524.000000) scale(0.100000,-0.100000)"
fill="#000000" stroke="none">
<path d="M2205 5229 c-573 -47 -1079 -279 -1490 -681 l-130 -128 471 -471 471
-471 54 34 c30 19 77 47 105 62 l51 28 52 -26 c28 -15 76 -42 106 -61 30 -19
58 -35 62 -35 5 0 28 19 51 43 l42 43 -135 134 -135 135 372 372 371 371 -36
42 c-20 23 -40 55 -46 70 l-9 28 46 -21 c63 -27 139 -29 158 -3 8 11 14 29 14
39 0 26 -70 92 -115 108 -19 7 -35 16 -35 20 0 18 137 30 222 19 47 -5 93 -7
102 -4 9 3 23 0 32 -7 25 -21 216 -79 260 -79 73 0 124 -25 191 -95 l61 -65
73 30 c79 33 220 108 258 139 l25 19 -70 45 c-217 140 -479 250 -744 311 -133
31 -221 43 -390 56 -149 11 -170 11 -315 -1z"/>
<path d="M3568 4663 c7 -3 16 -2 19 1 4 3 -2 6 -13 5 -11 0 -14 -3 -6 -6z"/>
<path d="M3821 4649 c-41 -5 -76 -11 -79 -14 -3 -2 15 -8 39 -11 l44 -7 -40
-18 c-22 -10 -57 -19 -78 -19 -22 0 -36 -4 -32 -9 8 -14 -53 -23 -128 -19
l-65 3 57 -60 c97 -101 125 -182 80 -239 -39 -50 -74 -60 -195 -61 l-112 0 14
-27 c8 -16 33 -35 58 -47 27 -11 51 -31 59 -48 8 -15 26 -38 40 -51 21 -20 28
-21 50 -11 14 6 33 9 43 5 22 -9 15 -61 -21 -141 l-27 -59 -17 23 c-31 41 -89
11 -186 -99 -64 -73 -74 -79 -117 -80 -31 0 -42 7 -72 42 -44 51 -49 30 -12
-49 28 -60 79 -99 142 -109 l41 -6 -14 -67 c-29 -135 -31 -163 -16 -213 7 -26
17 -48 22 -48 8 0 55 -111 49 -115 -2 -1 -33 -14 -70 -29 -47 -20 -65 -32 -61
-43 3 -8 11 -12 17 -9 120 50 110 41 134 120 13 41 32 83 43 94 12 14 19 35
19 62 0 37 2 40 26 40 15 0 44 -5 66 -12 32 -9 41 -9 54 3 13 13 8 17 -39 32
-40 13 -61 14 -87 7 -25 -7 -36 -6 -42 3 -11 17 -138 294 -138 301 0 10 128
96 171 115 93 40 84 46 143 -81 56 -118 96 -233 96 -274 0 -13 4 -24 8 -24 5
0 19 -18 31 -41 38 -67 17 -168 -41 -196 -13 -6 -138 -240 -138 -259 0 -2 198
145 440 326 242 182 449 330 460 330 27 0 60 -35 60 -63 0 -13 -10 -33 -22
-45 -13 -11 -219 -168 -458 -347 -309 -232 -434 -332 -432 -343 2 -10 6 -47 9
-85 5 -59 2 -74 -21 -122 -17 -33 -40 -62 -60 -75 -26 -16 -35 -29 -39 -58 -6
-54 22 -301 40 -342 40 -91 54 -200 32 -257 -16 -43 -69 -92 -107 -99 -51 -10
-105 11 -145 56 -37 40 -51 78 -63 168 l-7 54 -64 -64 -64 -63 -94 98 c-52 54
-95 101 -95 105 0 4 43 -36 95 -88 l95 -95 27 28 28 27 -100 100 c-55 55 -103
100 -107 100 -5 0 -8 -13 -8 -29 0 -26 -4 -29 -40 -35 -41 -6 -122 -67 -108
-81 4 -4 32 2 62 14 l56 21 0 -83 c0 -56 5 -89 15 -103 25 -36 54 -164 44
-191 -5 -13 -9 -60 -9 -104 l0 -79 200 0 c115 0 200 4 200 9 0 5 -12 18 -26
28 -24 17 -25 22 -14 43 6 12 10 35 6 50 -5 27 -4 28 33 23 86 -12 158 44 187
146 l16 54 18 -29 c10 -16 28 -58 40 -94 12 -35 26 -72 31 -82 6 -10 5 -19 -1
-23 -5 -3 -10 -30 -10 -60 0 -39 4 -54 16 -59 9 -3 160 -6 337 -6 l322 0 60
92 c147 227 276 543 329 808 13 69 32 205 42 303 16 166 16 188 0 355 -46 487
-191 873 -469 1244 -113 152 -331 379 -361 377 -12 -1 -54 -5 -95 -10z"/>
<path d="M3485 4640 c3 -5 11 -10 16 -10 6 0 7 5 4 10 -3 6 -11 10 -16 10 -6
0 -7 -4 -4 -10z"/>
<path d="M3438 4633 c7 -3 16 -2 19 1 4 3 -2 6 -13 5 -11 0 -14 -3 -6 -6z"/>
<path d="M3678 4633 c6 -2 18 -2 25 0 6 3 1 5 -13 5 -14 0 -19 -2 -12 -5z"/>
<path d="M3558 4613 c7 -3 16 -2 19 1 4 3 -2 6 -13 5 -11 0 -14 -3 -6 -6z"/>
<path d="M2304 4349 l-219 -219 50 -50 50 -50 225 225 224 224 -43 38 c-24 21
-49 41 -56 45 -7 4 -97 -79 -231 -213z"/>
<path d="M2918 4533 c7 -3 16 -2 19 1 4 3 -2 6 -13 5 -11 0 -14 -3 -6 -6z"/>
<path d="M2422 4249 c-122 -122 -222 -225 -222 -228 0 -4 20 -27 45 -51 l45
-44 225 224 c124 124 225 233 225 242 0 14 -76 78 -93 78 -2 0 -104 -100 -225
-221z"/>
<path d="M2892 4459 c2 -6 8 -10 13 -10 5 0 11 4 13 10 2 6 -4 11 -13 11 -9 0
-15 -5 -13 -11z"/>
<path d="M557 4382 c-10 -10 -17 -23 -17 -28 0 -5 188 -197 418 -427 l418
-418 24 26 24 26 -419 419 c-231 231 -423 420 -426 420 -3 0 -13 -8 -22 -18z"/>
<path d="M2695 4309 l-60 -61 37 5 c71 11 93 27 96 75 2 23 -1 42 -5 42 -5 0
-35 -28 -68 -61z"/>
<path d="M496 4304 c-43 -54 -136 -194 -136 -205 0 -5 7 -12 16 -16 11 -4 31
10 62 40 l46 46 -24 27 c-23 25 -23 26 -3 15 12 -6 23 -16 26 -23 3 -8 24 5
58 37 l54 50 -49 -52 -49 -52 228 -230 c126 -127 234 -231 240 -231 6 0 31 20
55 45 l45 45 -270 270 -270 270 -29 -36z"/>
<path d="M3088 4313 c6 -2 18 -2 25 0 6 3 1 5 -13 5 -14 0 -19 -2 -12 -5z"/>
<path d="M3050 4306 c0 -2 8 -10 18 -17 15 -13 16 -12 3 4 -13 16 -21 21 -21
13z"/>
<path d="M3040 4224 c0 -15 3 -25 6 -21 3 3 24 -5 46 -19 l39 -25 19 23 19 23
-37 16 c-20 9 -49 19 -64 23 -25 6 -28 4 -28 -20z"/>
<path d="M2310 3925 l-304 -304 24 -26 24 -26 307 307 306 306 -24 24 c-13 13
-25 24 -26 24 -1 0 -139 -137 -307 -305z"/>
<path d="M3241 4167 c-13 -21 -12 -21 5 -5 10 10 16 20 13 22 -3 3 -11 -5 -18
-17z"/>
<path d="M437 4112 l-47 -47 235 -235 235 -235 50 50 50 50 -232 232 c-128
128 -235 233 -238 233 -3 0 -27 -21 -53 -48z"/>
<path d="M2662 4148 c6 -17 33 -22 66 -12 l27 7 -25 7 c-41 13 -72 11 -68 -2z"/>
<path d="M2288 3782 l-357 -357 41 -48 c22 -26 39 -50 36 -52 -2 -3 -22 18
-43 46 l-38 50 -40 -39 c-39 -39 -39 -39 -23 -70 20 -39 20 -94 0 -133 -12
-24 -13 -34 -3 -45 6 -8 14 -14 18 -14 3 0 21 30 40 66 18 36 60 92 92 125 33
32 59 61 59 63 0 2 -22 21 -50 42 -27 21 -48 40 -46 42 3 2 29 -15 60 -38 52
-39 56 -41 77 -26 14 10 33 13 53 9 81 -16 240 -108 215 -124 -10 -6 -8 -9 8
-9 12 0 34 -15 51 -35 l29 -35 13 27 c13 27 14 27 18 5 4 -28 50 -52 99 -52
40 0 123 33 123 48 0 9 -124 32 -173 32 -46 0 -47 8 -23 140 13 69 29 160 36
203 12 73 21 90 35 67 10 -17 25 -11 25 10 0 13 -12 25 -35 34 -44 19 -125 74
-125 86 0 5 10 10 22 12 15 2 26 16 38 53 24 70 36 97 57 122 25 30 92 73 114
73 11 0 19 4 19 9 0 6 -20 3 -45 -5 -25 -9 -50 -14 -57 -12 -7 3 14 13 47 24
65 21 85 44 38 44 -16 0 -33 4 -39 10 -6 6 -134 -115 -366 -348z"/>
<path d="M2808 4133 c6 -2 18 -2 25 0 6 3 1 5 -13 5 -14 0 -19 -2 -12 -5z"/>
<path d="M1937 3982 c-75 -75 -137 -142 -137 -148 0 -5 20 -30 45 -54 l45 -44
145 144 145 145 -47 47 c-26 27 -50 48 -53 48 -3 0 -67 -62 -143 -138z"/>
<path d="M3016 4105 c-11 -8 -15 -15 -9 -15 6 0 16 7 23 15 16 19 11 19 -14 0z"/>
<path d="M330 4059 c-34 -54 -136 -267 -165 -344 -272 -721 -191 -1505 220
-2142 l60 -93 323 0 322 0 0 80 0 80 -61 0 -62 0 6 38 c3 20 19 100 36 176
l30 139 -192 -191 -192 -192 -140 140 -140 140 407 408 408 407 25 115 c13 63
27 125 30 138 5 20 2 22 -41 22 l-46 0 4 54 c9 105 102 241 242 354 42 33 84
65 93 71 16 9 13 15 -25 53 l-42 43 -135 -135 -135 -135 -404 404 -404 404
-22 -34z"/>
<path d="M2945 4049 c-16 -10 -25 -19 -19 -19 7 0 22 9 35 20 30 24 23 24 -16
-1z"/>
<path d="M2041 3868 l-142 -142 48 -48 48 -48 145 145 145 145 -45 45 c-24 25
-47 45 -51 45 -3 0 -70 -64 -148 -142z"/>
<path d="M2944 3958 l-19 -23 23 19 c12 11 22 21 22 23 0 8 -8 2 -26 -19z"/>
<path d="M2854 3878 l-19 -23 23 19 c21 18 27 26 19 26 -2 0 -12 -10 -23 -22z"/>
<path d="M1025 3740 l-49 -50 139 -140 c77 -77 144 -140 150 -140 6 0 31 20
55 45 l45 45 -145 145 -145 145 -50 -50z"/>
<path d="M3130 3780 c8 -5 20 -10 25 -10 6 0 3 5 -5 10 -8 5 -19 10 -25 10 -5
0 -3 -5 5 -10z"/>
<path d="M3183 3763 c9 -2 25 -2 35 0 9 3 1 5 -18 5 -19 0 -27 -2 -17 -5z"/>
<path d="M917 3632 l-47 -47 145 -145 145 -144 45 44 c25 24 45 49 45 55 0 10
-270 285 -281 285 -2 0 -26 -21 -52 -48z"/>
<path d="M1714 3569 c-11 -10 -30 -21 -42 -24 -26 -5 -132 -67 -132 -77 0 -22
27 -16 58 14 64 60 79 64 24 7 l-52 -55 39 -38 c38 -37 39 -38 69 -22 17 9 45
16 62 16 30 0 96 -27 87 -36 -2 -2 -17 2 -33 11 -35 18 -60 19 -103 4 -33 -12
-37 -19 -20 -36 8 -8 19 -8 40 0 22 9 37 8 61 -1 32 -12 34 -11 88 43 l55 55
-55 57 -55 56 52 -43 c29 -23 54 -47 56 -54 3 -7 10 -6 22 5 16 15 13 19 -46
54 -34 21 -69 38 -78 38 -9 0 -25 7 -36 17 -34 29 -41 30 -61 9z"/>
<path d="M3231 3484 c0 -11 3 -14 6 -6 3 7 2 16 -1 19 -3 4 -6 -2 -5 -13z"/>
<path d="M1435 3397 c-155 -122 -265 -276 -265 -369 l0 -39 88 3 c85 3 87 4
90 28 11 117 66 243 151 349 40 50 49 67 40 77 -6 8 -14 14 -18 14 -4 0 -42
-28 -86 -63z"/>
<path d="M3221 3414 c0 -11 3 -14 6 -6 3 7 2 16 -1 19 -3 4 -6 -2 -5 -13z"/>
<path d="M1516 3375 c-87 -106 -156 -259 -156 -346 l0 -39 57 0 58 0 77 77 77
76 -16 31 c-21 40 -20 104 2 146 17 32 17 32 -16 66 -18 19 -36 34 -40 34 -4
0 -23 -20 -43 -45z"/>
<path d="M3213 3305 c0 -27 2 -38 4 -22 2 15 2 37 0 50 -2 12 -4 0 -4 -28z"/>
<path d="M1626 3319 c-20 -29 -21 -118 -2 -144 12 -17 16 -17 30 -6 12 10 14
17 6 25 -14 14 -13 89 2 104 10 10 9 16 -4 28 -14 14 -17 14 -32 -7z"/>
<path d="M1705 3318 c-31 -16 -45 -39 -45 -71 0 -40 14 -62 50 -77 51 -21 110
19 110 75 0 27 -22 63 -47 74 -30 14 -42 13 -68 -1z"/>
<path d="M1822 3317 c-7 -8 -7 -18 -2 -27 6 -8 10 -28 10 -45 0 -16 -4 -37
-10 -45 -9 -14 4 -40 20 -40 12 0 30 50 30 85 0 35 -18 85 -30 85 -4 0 -12 -6
-18 -13z"/>
<path d="M2812 3205 c0 -16 2 -22 5 -12 2 9 2 23 0 30 -3 6 -5 -1 -5 -18z"/>
<path d="M2189 3193 c-13 -16 -12 -17 4 -4 16 13 21 21 13 21 -2 0 -10 -8 -17
-17z"/>
<path d="M1657 3164 c-14 -14 -6 -25 28 -40 44 -18 73 -18 109 1 16 9 31 13
33 11 3 -3 -10 -12 -28 -21 -40 -21 -111 -15 -140 11 -19 17 -21 16 -89 -51
-39 -38 -70 -73 -70 -77 0 -5 78 -8 173 -8 l174 0 15 54 15 55 -37 36 c-34 33
-40 36 -60 25 -21 -11 -50 -10 -95 5 -11 3 -24 3 -28 -1z"/>
<path d="M2134 3138 l-19 -23 23 19 c21 18 27 26 19 26 -2 0 -12 -10 -23 -22z"/>
<path d="M3058 3103 c6 -2 18 -2 25 0 6 3 1 5 -13 5 -14 0 -19 -2 -12 -5z"/>
<path d="M3108 3093 c7 -3 16 -2 19 1 4 3 -2 6 -13 5 -11 0 -14 -3 -6 -6z"/>
<path d="M3141 3087 c2 -2 18 -11 34 -21 l30 -17 -24 20 c-13 12 -28 21 -34
21 -6 0 -8 -1 -6 -3z"/>
<path d="M2334 3064 c-18 -14 -18 -14 6 -3 31 14 36 19 24 19 -6 0 -19 -7 -30
-16z"/>
<path d="M2612 2994 c-54 -67 -60 -80 -39 -87 7 -2 26 21 45 55 32 57 45 68
57 49 7 -13 136 -81 151 -81 7 0 15 -8 17 -17 4 -14 5 -14 6 -3 1 12 11 15 42
12 29 -3 40 -1 35 7 -5 7 4 11 26 12 18 1 44 5 58 9 22 7 23 8 5 11 -11 1 -65
3 -120 3 l-100 1 -65 46 -66 47 -52 -64z"/>
<path d="M2990 3040 c0 -5 5 -10 10 -10 6 0 10 5 10 10 0 6 -4 10 -10 10 -5 0
-10 -4 -10 -10z"/>
<path d="M3070 3020 c0 -5 5 -10 10 -10 6 0 10 5 10 10 0 6 -4 10 -10 10 -5 0
-10 -4 -10 -10z"/>
<path d="M2269 3003 c-13 -16 -12 -17 4 -4 9 7 17 15 17 17 0 8 -8 3 -21 -13z"/>
<path d="M1242 2893 c-11 -49 -23 -106 -27 -128 l-7 -40 126 125 c69 69 126
126 126 127 0 2 -45 3 -99 3 l-99 0 -20 -87z"/>
<path d="M1455 2960 c-19 -21 -18 -22 70 -110 l90 -90 123 0 c124 0 124 0 118
23 -3 12 -6 61 -6 110 l0 87 -188 0 c-177 0 -190 -1 -207 -20z"/>
<path d="M905 2410 l-520 -520 28 -27 27 -28 523 520 c287 286 457 454 378
373 l-144 -146 47 -46 c25 -25 50 -46 54 -46 4 0 70 63 147 140 l140 140 -80
80 -80 80 -520 -520z"/>
<path d="M2242 2905 c0 -16 2 -22 5 -12 2 9 2 23 0 30 -3 6 -5 -1 -5 -18z"/>
<path d="M2340 2876 c0 -6 115 -76 125 -76 3 0 5 7 3 16 -3 16 -128 75 -128
60z"/>
<path d="M2061 2814 c0 -11 3 -14 6 -6 3 7 2 16 -1 19 -3 4 -6 -2 -5 -13z"/>
<path d="M3477 2793 l-17 -32 -56 20 c-31 11 -58 18 -61 16 -2 -3 26 -20 61
-38 36 -19 67 -40 68 -48 2 -10 8 -9 26 5 21 18 22 21 9 64 l-13 45 -17 -32z"/>
<path d="M2760 2796 c0 -3 9 -10 20 -16 11 -6 20 -8 20 -6 0 3 -9 10 -20 16
-11 6 -20 8 -20 6z"/>
<path d="M1450 2615 l-144 -144 48 -47 49 -46 143 143 144 144 -47 47 c-26 27
-47 48 -48 48 0 0 -65 -65 -145 -145z"/>
<path d="M2907 2749 c7 -9 11 -18 9 -20 -8 -8 21 -27 31 -21 6 4 -4 18 -21 32
-17 13 -25 18 -19 9z"/>
<path d="M1668 2707 l42 -43 -22 -22 -22 -22 37 0 37 0 0 65 0 65 -57 0 -57 0
42 -43z"/>
<path d="M1760 2685 l0 -65 55 0 55 0 0 65 0 65 -55 0 -55 0 0 -65z"/>
<path d="M2748 2723 c7 -3 16 -2 19 1 4 3 -2 6 -13 5 -11 0 -14 -3 -6 -6z"/>
<path d="M2798 2713 c6 -2 18 -2 25 0 6 3 1 5 -13 5 -14 0 -19 -2 -12 -5z"/>
<path d="M1880 2583 l0 -113 -130 0 -130 0 0 52 0 53 -132 -132 -132 -132 -42
-298 c-23 -164 -45 -313 -48 -330 l-5 -33 290 0 290 0 165 137 c90 75 164 143
164 152 1 9 -14 121 -32 249 l-32 233 -34 21 c-44 27 -136 139 -167 203 l-24
50 -1 -112z m0 -488 l0 -145 -130 0 -130 0 0 145 0 145 130 0 130 0 0 -145z"/>
<path d="M1630 2165 l0 -65 55 0 55 0 0 65 0 65 -55 0 -55 0 0 -65z"/>
<path d="M1760 2165 l0 -65 55 0 55 0 0 65 0 65 -55 0 -55 0 0 -65z"/>
<path d="M1630 2025 l0 -65 120 0 120 0 0 65 0 65 -120 0 -120 0 0 -65z"/>
<path d="M2120 2686 c0 -2 8 -10 18 -17 15 -13 16 -12 3 4 -13 16 -21 21 -21
13z"/>
<path d="M2479 2628 c-40 -59 -72 -88 -98 -89 -22 0 -23 -2 -7 -8 16 -6 14
-10 -18 -34 -48 -37 -149 -84 -197 -92 -21 -4 -39 -10 -39 -13 0 -4 6 -47 14
-97 8 -49 22 -148 31 -220 10 -71 19 -132 21 -134 3 -3 142 110 203 165 11 10
10 27 -9 109 -12 53 -20 99 -17 101 3 3 13 -30 22 -73 23 -106 25 -115 35
-111 5 2 49 38 98 80 98 84 103 94 95 189 -5 53 -9 60 -39 78 -42 25 -67 74
-68 133 -1 27 -2 48 -3 48 -1 0 -12 -15 -24 -32z"/>
<path d="M2190 2616 c0 -2 8 -10 18 -17 15 -13 16 -12 3 4 -13 16 -21 21 -21
13z"/>
<path d="M1642 2598 c-7 -7 -12 -36 -12 -65 l0 -53 120 0 120 0 0 65 0 65
-108 0 c-71 0 -112 -4 -120 -12z"/>
<path d="M2257 2569 c7 -7 15 -10 18 -7 3 3 -2 9 -12 12 -14 6 -15 5 -6 -5z"/>
<path d="M952 2337 l-232 -232 50 -50 50 -50 235 235 235 235 -47 47 c-26 27
-50 48 -53 48 -3 0 -110 -105 -238 -233z"/>
<path d="M2611 2524 c0 -11 3 -14 6 -6 3 7 2 16 -1 19 -3 4 -6 -2 -5 -13z"/>
<path d="M1062 2227 l-232 -232 48 -48 47 -47 235 235 234 235 -44 45 c-24 25
-47 45 -50 45 -3 0 -110 -105 -238 -233z"/>
<path d="M3424 2444 c-18 -14 -18 -15 4 -4 12 6 22 13 22 15 0 8 -5 6 -26 -11z"/>
<path d="M3425 2377 c-11 -7 -69 -30 -130 -50 -124 -40 -205 -74 -205 -85 0
-4 20 -28 45 -52 l46 -45 -16 44 c-8 24 -15 47 -15 52 0 5 24 9 53 9 61 1 151
34 200 76 56 48 72 84 22 51z"/>
<path d="M1193 2147 l-142 -142 -35 -171 c-20 -94 -36 -174 -36 -177 0 -4 61
-7 135 -7 132 0 135 1 139 23 11 52 87 609 84 613 -2 2 -68 -61 -145 -139z"/>
<path d="M3003 2212 c-29 -14 -53 -31 -53 -37 0 -6 47 -57 105 -115 l105 -105
32 33 33 32 -19 53 c-12 36 -36 70 -74 110 -31 31 -61 57 -67 56 -5 0 -34 -12
-62 -27z"/>
<path d="M576 1958 l-126 -132 47 -48 47 -48 133 132 133 133 -47 47 c-26 27
-50 48 -54 48 -3 0 -63 -59 -133 -132z"/>
<path d="M685 1850 l-130 -130 48 -47 47 -48 132 132 133 133 -45 45 c-24 25
-47 45 -50 45 -3 0 -64 -59 -135 -130z"/>
<path d="M2497 1913 c-23 -16 -36 -32 -33 -42 8 -28 46 -210 46 -221 0 -5 -22
-10 -50 -10 l-50 0 0 -80 0 -80 151 0 c125 0 149 2 140 13 -7 9 -7 17 0 24 15
15 -7 90 -29 102 -48 28 -48 30 -5 90 1 2 9 -1 16 -7 33 -28 108 114 107 201
-1 28 -3 26 -19 -21 -23 -66 -55 -102 -93 -102 -38 0 -113 69 -130 121 l-13
39 -38 -27z"/>
<path d="M2332 1801 c-111 -74 -113 -77 -110 -111 l3 -35 138 -3 c75 -1 137 1
137 5 0 13 -48 215 -52 218 -2 1 -54 -32 -116 -74z"/>
<path d="M2162 1686 c-49 -35 -49 -36 1 -36 46 0 47 1 47 30 0 36 -5 36 -48 6z"/>
<path d="M1100 1560 l0 -80 265 0 266 0 94 76 c52 42 95 78 95 80 0 2 -162 4
-360 4 l-360 0 0 -80z"/>
<path d="M1989 1569 c-57 -39 -108 -75 -114 -80 -5 -5 99 -9 258 -9 l267 0 0
80 0 80 -153 0 -153 0 -105 -71z"/>
<path d="M469 1453 c62 -113 457 -503 509 -503 11 0 433 342 587 475 l50 44
-578 0 c-547 1 -577 0 -568 -16z"/>
<path d="M1715 1382 c-72 -48 -236 -159 -365 -247 -129 -87 -257 -174 -283
-192 l-49 -33 79 -51 c183 -119 486 -250 703 -304 217 -54 340 -69 580 -69
248 0 374 16 600 75 305 80 589 219 844 412 142 107 417 390 469 483 7 12 -39
14 -313 14 l-320 0 0 -30 c0 -16 -5 -30 -11 -30 -18 0 -5 -286 17 -397 l18
-93 -23 -24 c-64 -68 -305 -56 -319 16 -2 9 8 28 21 44 12 16 38 77 56 136
l33 107 -27 80 c-14 44 -33 85 -41 92 -9 7 -13 21 -10 34 3 11 3 31 -1 43 -5
22 -5 22 -212 20 l-206 -3 -2 -25 c-1 -14 -5 -69 -8 -122 l-7 -97 -71 -3 -72
-3 70 -24 c39 -13 75 -28 80 -33 6 -5 12 -45 15 -88 l5 -80 -262 0 c-244 0
-263 1 -263 18 0 36 38 60 134 85 60 16 109 44 169 96 l34 30 -27 123 -26 123
-440 3 -440 2 -129 -88z"/>
</g>
</svg>
