<?xml version="1.0" encoding="utf-8"?>
<!-- Generator: Adobe Illustrator 27.5.0, SVG Export Plug-In . SVG Version: 6.00 Build 0)  -->
<svg version="1.1" xmlns="http://www.w3.org/2000/svg" xmlns:xlink="http://www.w3.org/1999/xlink" x="0px" y="0px"
	 viewBox="0 0 3710 3710" style="enable-background:new 0 0 3710 3710;" xml:space="preserve">
<g id="Background">
	<g>
		<g>
			<rect style="fill:#FFFFFF;" width="3710" height="3710"/>
		</g>
	</g>
</g>
<g id="Illustration">
	<g>
		<path style="fill:#F4F7FA;" d="M1154.868,617.716c-95.858,134.197,12.564,354.539-128.632,454.739
			c-137.444,97.537-303.304-66.455-432.751,17.388c-192.028,124.375-163.287,703.041,111.743,1065.282
			c82.711,108.938,152.329,151.718,182.071,274.252c63.868,263.11-171.941,416.743-128.744,546.995
			c97.263,293.28,1637.786,554.725,2266.188-316.99c293.489-407.127,342.987-998.96,89.352-1451.524
			C2655.781,390.08,1369.958,316.603,1154.868,617.716z"/>
		<rect x="1430.989" y="2940.211" style="fill:#C1CAD4;" width="1501.41" height="160.777"/>
		<rect x="1234.852" y="3124.451" style="fill:#C1CAD4;" width="1904.072" height="80.388"/>
		<g>
			<linearGradient id="SVGID_1_" gradientUnits="userSpaceOnUse" x1="1682.4288" y1="2526.6545" x2="1605.1108" y2="1480.2856">
				<stop  offset="0" style="stop-color:#FFC444"/>
				<stop  offset="0.9964" style="stop-color:#F36F56"/>
			</linearGradient>
			<path style="fill:url(#SVGID_1_);" d="M1012.093,1734.044c-361.516,191.938-533.25,582.956-432.98,907.197
				c89.249,288.6,386.448,499.906,654.626,494.835c392.364-7.419,531.629-474.395,876.27-422.671
				c241.924,36.308,425.146,304.205,478.012,258.604c35.315-30.461-46.395-150.04,1.782-199.97
				c55.539-57.56,216.644,46.933,236.684,18.684c31.051-43.771-237.352-461.56-586.514-482.837
				c-431.767-26.31-609.83,576.678-1017.756,525.383c-200.367-25.196-392.863-200.285-443.743-414.081
				c-52.031-218.631,47.798-461.913,255.059-615.158C1026.386,1780.701,1019.24,1757.372,1012.093,1734.044z"/>
			
				<linearGradient id="SVGID_00000162350932281264545780000007179275030524490668_" gradientUnits="userSpaceOnUse" x1="1648.1851" y1="2529.1851" x2="1570.8671" y2="1482.8137">
				<stop  offset="0" style="stop-color:#FFC444"/>
				<stop  offset="0.9964" style="stop-color:#F36F56"/>
			</linearGradient>
			<path style="opacity:0.3;fill:url(#SVGID_00000162350932281264545780000007179275030524490668_);" d="M2760.325,2782.99
				c-77.02-134.625-194.157-269.385-365.711-315.216c-211.996-56.634-419.598,45.901-552.641,111.612
				c-359.603,177.61-372.962,390.776-594.186,411.905c-246.436,23.538-477.61-217.32-581.046-401.596
				c-57.437-102.326-85.706-205.455-96.685-300.984c-27.761,118.112-25.932,239.385,9.058,352.53
				c89.249,288.6,386.448,499.906,654.626,494.835c392.364-7.419,531.629-474.395,876.27-422.671
				c241.924,36.308,425.146,304.205,478.012,258.604c35.315-30.461-46.395-150.04,1.782-199.97
				C2625.106,2735.449,2703.057,2764.336,2760.325,2782.99z"/>
		</g>
		<g>
			
				<linearGradient id="SVGID_00000000206899885020615080000009957605613677942946_" gradientUnits="userSpaceOnUse" x1="2907.783" y1="761.1586" x2="3021.1821" y2="1828.1465">
				<stop  offset="0" style="stop-color:#FFC444"/>
				<stop  offset="0.9964" style="stop-color:#F36F56"/>
			</linearGradient>
			<path style="fill:url(#SVGID_00000000206899885020615080000009957605613677942946_);" d="M2760.753,1683.574
				c37.874,5.985,260.338,37.777,405.932-104.166c160.325-156.304,108.063-406.896,80.352-539.759
				c-62.819-301.208-268.866-520.194-307.151-501.456c-29.009,14.198,51.472,158.428-10.31,221.645
				c-80.236,82.1-318.335-56.431-341.026-18.424c-36.334,60.858,584.672,398.341,526.59,647.276
				c-17.161,73.552-94.635,143.781-159.792,180.409c-86.131,48.418-169.356,48.584-206.18,46.391
				C2753.031,1638.185,2756.892,1660.879,2760.753,1683.574z"/>
			
				<linearGradient id="SVGID_00000183221203281902978930000013051520802463207058_" gradientUnits="userSpaceOnUse" x1="2587.0156" y1="1212.7262" x2="3227.1201" y2="1212.7262">
				<stop  offset="0" style="stop-color:#FFC444"/>
				<stop  offset="0.9964" style="stop-color:#F36F56"/>
			</linearGradient>
			<path style="opacity:0.3;fill:url(#SVGID_00000183221203281902978930000013051520802463207058_);" d="M3125.449,981.483
				c-100.609-92.599-211.338-44.814-350.507-139.173c-39.907-27.057-72.276-59.128-98.654-92.735
				c-45.072-13.042-79.751-21.537-87.737-8.162c-36.334,60.858,584.672,398.341,526.59,647.276
				c-17.161,73.552-94.635,143.781-159.792,180.409c-86.131,48.418-169.356,48.584-206.18,46.391
				c3.861,22.695,7.722,45.389,11.583,68.084c35.503,5.611,233.203,33.896,377.744-79.498
				c43.242-72.111,76.474-157.807,84.888-256.621C3228.429,1288.226,3245.165,1091.669,3125.449,981.483z"/>
		</g>
		<g>
			<path style="fill:#C1CAD4;" d="M1799.983,640.488c-8.169-67.253-57.949-121.998-124.112-136.567
				c-205.695-45.297-399.667-42.118-583.018,4.98C908.442,551.66,734.859,638.289,573.23,773.336
				c-51.991,43.438-70.919,114.97-47.153,178.412c212.135,566.235,425.402,1130.442,952.296,1134.979
				C1943.806,1839.729,1872.867,1240.747,1799.983,640.488z M967.205,1301.816c-108.24-0.747-195.348-93.96-195.348-93.96
				s88.385-92.004,196.625-91.258c108.239,0.747,195.347,93.96,195.347,93.96S1075.444,1302.561,967.205,1301.816z
				 M1416.262,1832.526c-145.446,35.538-330.631-210.998-330.631-210.998s135.219,42.044,280.666,6.506
				c145.446-35.538,246.042-135.199,246.042-135.199S1561.708,1796.989,1416.262,1832.526z M1569.989,1154.533
				c-95.699,50.576-216.551,9.696-216.551,9.696s34.306-122.88,130.007-173.457c95.699-50.575,216.552-9.696,216.552-9.696
				S1665.689,1103.957,1569.989,1154.533z"/>
			<path style="opacity:0.3;fill:#FFFFFF;" d="M557.294,788.678c-1.299,1.434-2.569,2.886-3.811,4.359
				c-36.662,43.52-47.863,104.104-27.407,158.711c212.135,566.235,425.402,1130.442,952.296,1134.979c0.002,0,0.002,0,0.002,0
				c9.963-5.288,19.592-10.795,29.068-16.401c-13.88-34.926-25.861-71.389-35.365-109.541
				c-13.174-52.877-19.421-99.67-21.703-142.273c-10.744,6.277-22.098,11.078-34.112,14.014
				c-145.446,35.538-330.631-210.998-330.631-210.998s135.219,42.044,280.666,6.506c34.457-8.42,66.358-20.457,95.039-33.896
				c3.794-70.063-1.29-138.285-42.843-222.178c-142.407-287.518-460.356-248.926-582.725-519.728
				c-34.026-75.304-43.774-154.358-39.445-230.962c-4.426,2.387-8.845,4.813-13.256,7.262c-0.562,0.312-1.126,0.622-1.69,0.936
				c-4.155,2.315-8.304,4.662-12.447,7.033c-0.799,0.457-1.598,0.914-2.396,1.374c-4.027,2.317-8.051,4.658-12.066,7.027
				c-0.864,0.51-1.729,1.024-2.591,1.536c-4.003,2.374-8.002,4.768-11.992,7.194c-0.775,0.471-1.549,0.95-2.322,1.423
				c-4.111,2.51-8.217,5.038-12.313,7.603c-0.299,0.188-0.599,0.38-0.898,0.569c-13.243,8.308-26.41,16.912-39.508,25.802
				c-0.666,0.451-1.334,0.892-1.998,1.346c-3.153,2.148-6.296,4.335-9.441,6.516c-1.824,1.266-3.651,2.522-5.474,3.801
				c-2.787,1.953-5.566,3.935-8.344,5.916c-2.182,1.555-4.364,3.109-6.542,4.68c-2.574,1.857-5.143,3.732-7.711,5.612
				c-2.398,1.756-4.794,3.518-7.187,5.293c-2.408,1.786-4.811,3.582-7.214,5.389c-2.57,1.933-5.136,3.881-7.7,5.838
				c-2.25,1.716-4.499,3.433-6.744,5.167c-2.784,2.151-5.561,4.325-8.338,6.503c-2.03,1.593-4.064,3.178-6.091,4.786
				c-3.183,2.526-6.361,5.085-9.536,7.648c-1.626,1.312-3.257,2.61-4.88,3.932c-4.816,3.92-9.62,7.875-14.414,11.88
				c-3.249,2.715-6.37,5.539-9.358,8.465C561.594,784.03,559.418,786.336,557.294,788.678z M968.482,1116.597
				c108.239,0.747,195.347,93.96,195.347,93.96s-88.385,92.004-196.624,91.258c-108.24-0.747-195.348-93.96-195.348-93.96
				S860.242,1115.852,968.482,1116.597z"/>
		</g>
		<g>
			<path style="fill:#C1CAD4;" d="M3136.994,744.214c-166.21-129.37-342.689-209.936-528.47-246.283
				c-184.871-40.722-378.838-37.182-582.84,15.21c-65.619,16.852-113.476,73.286-119.31,140.782
				c-52.053,602.423-102.211,1203.503,371.497,1434.237c526.419-22.779,720.024-594.032,912.422-1167.274
				C3211.849,856.66,3190.454,785.826,3136.994,744.214z M2234.853,993.039c97.392,47.232,135.936,168.85,135.936,168.85
				s-119.365,45.04-216.76-2.192c-97.394-47.232-135.935-168.85-135.935-168.85S2137.458,945.807,2234.853,993.039z
				 M2357.017,1707.516c-146.589-30.48-276.452-2.155-276.452-2.155s161.689-181.39,308.279-150.909
				c146.589,30.48,222.57,261.288,222.57,261.288S2503.606,1737.996,2357.017,1707.516z M2761.553,1286.018
				c-108.15,4.494-199.667-84.395-199.667-84.395s83.829-96.174,191.977-100.667c108.148-4.494,199.666,84.394,199.666,84.394
				S2869.701,1281.524,2761.553,1286.018z"/>
			<path style="opacity:0.3;fill:#FFFFFF;" d="M2277.871,2088.16c0.01,0,0.02-0.001,0.032-0.002
				c11.256-0.488,22.309-1.317,33.265-2.301c2.493-37.5,7.361-75.571,15.193-114.102c22.213-109.311,59.621-183.219,96.447-246.908
				c-20.802-6.617-42.819-12.555-65.791-17.331c-146.589-30.48-276.452-2.155-276.452-2.155s161.689-181.39,308.279-150.909
				c37.669,7.833,70.663,28.91,98.916,55.884c26.524-54.057,44.732-112.553,43.505-193.197
				c-4.888-320.815-308.521-422.738-302.507-719.844c1.671-82.617,26.878-158.177,63.737-225.471
				c-5.025,0.251-10.06,0.541-15.097,0.855c-0.639,0.04-1.278,0.076-1.918,0.118c-4.749,0.302-9.504,0.637-14.265,0.995
				c-0.919,0.069-1.839,0.138-2.76,0.21c-4.626,0.358-9.259,0.741-13.897,1.151c-1.01,0.09-2.021,0.184-3.031,0.275
				c-4.633,0.421-9.269,0.861-13.912,1.335c-0.891,0.091-1.785,0.19-2.676,0.283c-4.804,0.5-9.612,1.017-14.426,1.572
				c-0.32,0.037-0.643,0.078-0.963,0.116c-15.609,1.813-31.28,3.927-47.009,6.333c-0.733,0.112-1.465,0.214-2.198,0.327
				c-3.794,0.587-7.596,1.213-11.397,1.834c-2.171,0.355-4.339,0.7-6.512,1.066c-3.365,0.567-6.736,1.162-10.105,1.756
				c-2.63,0.464-5.259,0.926-7.892,1.406c-3.136,0.572-6.279,1.163-9.42,1.758c-2.898,0.549-5.798,1.106-8.699,1.675
				c-2.958,0.58-5.92,1.171-8.882,1.771c-3.137,0.637-6.279,1.289-9.422,1.95c-2.779,0.583-5.557,1.168-8.341,1.77
				c-3.425,0.742-6.854,1.507-10.286,2.276c-2.534,0.567-5.066,1.128-7.601,1.711c-3.9,0.896-7.804,1.825-11.709,2.757
				c-2.104,0.503-4.207,0.989-6.313,1.501c-5.927,1.443-11.86,2.921-17.804,4.446c-0.092,0.024-0.185,0.046-0.277,0.07
				c-4.101,1.053-8.133,2.261-12.09,3.617c-1.978,0.678-3.936,1.392-5.878,2.143c-7.759,3.003-15.206,6.583-22.29,10.683
				c-5.316,3.076-10.427,6.445-15.315,10.083c-4.89,3.638-9.556,7.545-13.979,11.699c-1.475,1.385-2.921,2.797-4.341,4.235
				c-21.297,21.575-36.361,49.106-42.688,79.655c-1.265,6.11-2.181,12.341-2.728,18.668c-0.814,9.413-1.626,18.825-2.436,28.236
				C1852.882,1275.04,1811.564,1861.031,2277.871,2088.16z M2234.853,993.039c97.392,47.232,135.936,168.85,135.936,168.85
				s-119.365,45.04-216.76-2.192c-97.394-47.232-135.935-168.85-135.935-168.85S2137.458,945.807,2234.853,993.039z"/>
		</g>
		<g>
			
				<linearGradient id="SVGID_00000036932443440479297240000011955114738468141445_" gradientUnits="userSpaceOnUse" x1="2064.3599" y1="1891.7289" x2="2477.543" y2="1891.7289">
				<stop  offset="0" style="stop-color:#FF9085"/>
				<stop  offset="1" style="stop-color:#FB6FBB"/>
			</linearGradient>
			<path style="fill:url(#SVGID_00000036932443440479297240000011955114738468141445_);" d="M2412.232,1682.145
				c1.267,7.926,2.534,15.852,3.801,23.778c-162.127,94.859-190.23,130.046-184.428,144.334
				c6.382,15.713,52.788,3.747,140.897,25.201c56.369,13.725,89.628,21.824,100.805,45.821
				c22.18,47.619-45.839,150.889-131.878,174.816c-120.483,33.505-276.586-88.498-277.068-196.58
				C2063.901,1796.579,2204.443,1673.531,2412.232,1682.145z"/>
			
				<linearGradient id="SVGID_00000095326820650264599680000002634126572460614796_" gradientUnits="userSpaceOnUse" x1="2064.3601" y1="1930.3898" x2="2477.5444" y2="1930.3898">
				<stop  offset="0" style="stop-color:#FF9085"/>
				<stop  offset="1" style="stop-color:#FB6FBB"/>
			</linearGradient>
			<path style="opacity:0.3;fill:url(#SVGID_00000095326820650264599680000002634126572460614796_);" d="M2267.116,1936.17
				c-67.811-44.811-128.259-43.331-144.334-85.913c-7.326-19.407-5.374-47.836,23.854-91.219
				c-52.632,41.16-82.486,92.956-82.275,140.475c0.482,108.083,156.585,230.086,277.068,196.58
				c14.681-4.083,28.816-10.517,42.091-18.55C2359.122,2024.771,2322.659,1972.873,2267.116,1936.17z"/>
			
				<linearGradient id="SVGID_00000147179267565944753320000014954997881587901828_" gradientUnits="userSpaceOnUse" x1="2270.9529" y1="3114.3823" x2="2428.5447" y2="3114.3823">
				<stop  offset="0" style="stop-color:#444B8C"/>
				<stop  offset="0.9964" style="stop-color:#26264F"/>
			</linearGradient>
			<polygon style="fill:url(#SVGID_00000147179267565944753320000014954997881587901828_);" points="2353.496,3094.91 
				2270.953,3142.978 2428.545,3131.208 2419.19,3085.786 			"/>
			
				<linearGradient id="SVGID_00000082358217426994561890000009301095622086131076_" gradientUnits="userSpaceOnUse" x1="2870.8782" y1="1850.2432" x2="2712.7979" y2="2083.927">
				<stop  offset="0.0036" style="stop-color:#E38DDD"/>
				<stop  offset="0.7059" style="stop-color:#AC79EF"/>
				<stop  offset="1" style="stop-color:#9571F6"/>
			</linearGradient>
			<path style="fill:url(#SVGID_00000082358217426994561890000009301095622086131076_);" d="M2617.083,1722.202
				c18.572,9.845,26.513,13.039,39.097,19.268c4.714,2.333,92.159,46.068,132.142,88.168c55.792,58.745,10.66,105.347,53.84,189.009
				c59.067,114.443,182.418,102.611,199.318,190.154c12.885,66.744-48.341,127.866-60.191,139.121
				c-100.857,95.803-305.611,75.582-399.159-30.297c-68.725-77.785-67.764-190.858-67.584-211.919
				c0.871-102.373,48.81-150.1,16.037-230.247c-14.54-35.559-34.708-52.408-35.51-93.931c-0.831-43.028,19.519-92.641,46.965-97.368
				C2556.678,1681.636,2563.194,1693.635,2617.083,1722.202z"/>
			
				<linearGradient id="SVGID_00000084491146890438656540000015791952931353490599_" gradientUnits="userSpaceOnUse" x1="2829.7234" y1="1921.3657" x2="2699.3611" y2="2114.0752">
				<stop  offset="0.0036" style="stop-color:#E38DDD"/>
				<stop  offset="0.7059" style="stop-color:#AC79EF"/>
				<stop  offset="1" style="stop-color:#9571F6"/>
			</linearGradient>
			<path style="opacity:0.3;fill:url(#SVGID_00000084491146890438656540000015791952931353490599_);" d="M2624.976,1815.717
				c14.642,8.162,20.902,10.811,30.823,15.975c3.716,1.934,72.655,38.195,104.177,73.1c43.985,48.705,8.404,87.344,42.446,156.707
				c46.567,94.885,143.813,85.074,157.137,157.656c10.159,55.337-38.111,106.013-47.453,115.345
				c-79.513,79.43-240.935,62.664-314.686-25.12c-54.181-64.491-53.423-158.24-53.282-175.702
				c0.687-84.877,38.48-124.448,12.643-190.897c-11.463-29.482-27.363-43.452-27.995-77.879
				c-0.655-35.674,15.388-76.809,37.027-80.728C2577.354,1782.084,2582.491,1792.033,2624.976,1815.717z"/>
			
				<linearGradient id="SVGID_00000021084116327934018560000011168988095782141825_" gradientUnits="userSpaceOnUse" x1="2493.1721" y1="1645.1277" x2="2630.4783" y2="1848.942">
				<stop  offset="0" style="stop-color:#444B8C"/>
				<stop  offset="0.9964" style="stop-color:#26264F"/>
			</linearGradient>
			<path style="fill:url(#SVGID_00000021084116327934018560000011168988095782141825_);" d="M2504.817,1851.961
				c18.263,63.889,0.015,83.123,20.644,104.504c33.003,34.207,114.629,14.226,163.851-19.352
				c18.013-12.289,57.434-39.129,55.479-72.25c-2.178-36.909-53.298-40.512-67.01-88.491c-11.675-40.849,19.656-58.264,10.31-97.941
				c-11.342-48.145-72.271-79.091-121.997-84.195c-4.04-0.415-90.115-8.166-118.114,41.99c-14.82,26.55-6.239,56.552,5.918,99.053
				C2470.908,1794.747,2489.287,1797.635,2504.817,1851.961z"/>
			
				<linearGradient id="SVGID_00000074413225643710340990000004192816017368594088_" gradientUnits="userSpaceOnUse" x1="2419.0654" y1="2092.9067" x2="2693.9868" y2="2948.6011">
				<stop  offset="0" style="stop-color:#FF9085"/>
				<stop  offset="1" style="stop-color:#FB6FBB"/>
			</linearGradient>
			<path style="fill:url(#SVGID_00000074413225643710340990000004192816017368594088_);" d="M2372.502,1875.458
				c67.967,14.128,135.934,28.256,203.901,42.384c7.091,15.494,16.196,40.258,17.183,71.021
				c2.267,70.689-40.563,103.531-57.275,155.789c-30.596,95.678,40.212,213.112,99.659,271.485
				c91.227,89.579,165.388,49.586,253.156,140.897c54.79,57.002,42.15,89.502,93.932,200.464
				c106.131,227.422,246.207,277.275,221.082,347.089c-26.72,74.249-208.42,82.491-310.431,72.167
				c-160.778-16.271-201.708-86.565-364.719-87.664c-127.794-0.862-142.015,42.075-196.58,20.079
				c-169.566-68.354-154.365-532.234-91.64-835.075C2278.037,2094.175,2335.244,1955.797,2372.502,1875.458z"/>
			
				<linearGradient id="SVGID_00000152948081149139828200000010693789251890068894_" gradientUnits="userSpaceOnUse" x1="2197.0554" y1="2895.4478" x2="3207.0815" y2="2895.4478">
				<stop  offset="0" style="stop-color:#FF9085"/>
				<stop  offset="1" style="stop-color:#FB6FBB"/>
			</linearGradient>
			<path style="opacity:0.3;fill:url(#SVGID_00000152948081149139828200000010693789251890068894_);" d="M2742.502,2826.229
				c-93.006,5.4-105.681,146.787-207.337,162.662c-136.159,21.263-269.888-207.952-276.068-218.792
				c-29.99-52.597-48.969-106.633-60.136-159.573c-10.457,232.046,20.49,453.108,133.449,498.643
				c54.565,21.996,68.786-20.94,196.58-20.079c163.012,1.099,203.941,71.393,364.719,87.664
				c102.012,10.324,283.711,2.082,310.431-72.167c2.469-6.857,3.321-13.521,2.789-20.18
				c-63.823-1.896-133.578-15.228-199.815-51.987C2865.952,2954.08,2833.627,2820.938,2742.502,2826.229z"/>
			
				<linearGradient id="SVGID_00000009585029053334915760000018359462561862643097_" gradientUnits="userSpaceOnUse" x1="2890.1128" y1="2508.0215" x2="2328.2693" y2="3415.218">
				<stop  offset="0" style="stop-color:#FFC444"/>
				<stop  offset="0.9964" style="stop-color:#F36F56"/>
			</linearGradient>
			<path style="fill:url(#SVGID_00000009585029053334915760000018359462561862643097_);" d="M2881.405,2474.543
				c0,0,95.927-33.05,107.955-38.282c12.026-5.232-43.071,48.145-67.014,49.485c-23.942,1.341-19.473,9.102-12.6,26.449
				s-16.588-7.854-28.341-14.727c-11.751-6.873-17.985-20.428-17.985-20.428v-17.599L2881.405,2474.543z"/>
			
				<linearGradient id="SVGID_00000051374312251804104760000004434864947863745668_" gradientUnits="userSpaceOnUse" x1="2621.0356" y1="2028.0176" x2="2895.957" y2="2883.7129">
				<stop  offset="0" style="stop-color:#FF9085"/>
				<stop  offset="1" style="stop-color:#FB6FBB"/>
			</linearGradient>
			<path style="fill:url(#SVGID_00000051374312251804104760000004434864947863745668_);" d="M2860.489,2496.323
				c5.346-12.983,10.692-25.965,16.038-38.948c-21.364-37.643-55.845-100.916-92.786-182.136
				c-95.761-210.545-118.327-344.429-197.028-357.398c-27.452-4.524-59.983,2.512-76.75,22.91
				c-46.92,57.083,42.364,199.225,84.192,265.817C2642.882,2284.144,2724.671,2391.771,2860.489,2496.323z"/>
			
				<linearGradient id="SVGID_00000010275866123824903850000011738939172758726289_" gradientUnits="userSpaceOnUse" x1="2443.9644" y1="1986.6036" x2="2564.2432" y2="1680.7529">
				<stop  offset="0" style="stop-color:#FFC444"/>
				<stop  offset="0.9964" style="stop-color:#F36F56"/>
			</linearGradient>
			<path style="fill:url(#SVGID_00000010275866123824903850000011738939172758726289_);" d="M2496.686,1840.554
				c0,0-32.354,47.385-79.659,44.159l-31.347,69.785c0,0,132.89,30.119,132.023,24.797c-0.867-5.323,22.717-68.932,22.717-68.932
				s-14.458-18.633,9.027-78.039L2496.686,1840.554z"/>
			
				<linearGradient id="SVGID_00000145772930015009179670000008994961506030908557_" gradientUnits="userSpaceOnUse" x1="1057.0619" y1="1555.8975" x2="1708.7468" y2="1163.5559" gradientTransform="matrix(0.9656 0.2601 -0.2601 0.9656 1849.4651 -0.4968)">
				<stop  offset="0" style="stop-color:#FFC444"/>
				<stop  offset="0.9964" style="stop-color:#F36F56"/>
			</linearGradient>
			<path style="fill:url(#SVGID_00000145772930015009179670000008994961506030908557_);" d="M2555.69,1839.568
				c0,0-54.914,44.229-111.608,4.365c-50.771-35.696,21.99-172.049,71.113-176.609c16.382-1.517,43.075,8.295,58.287,24.625
				c10.701,11.484,33.55,63.39,0.993,105.892c15.333-0.289,26.841,6.822,28.076,14.712c1.578,10.004-13.746,18.926-17.209,20.947
				C2573.31,1840.509,2561.182,1840.109,2555.69,1839.568z"/>
			
				<linearGradient id="SVGID_00000057868702934231779900000017842448746382433935_" gradientUnits="userSpaceOnUse" x1="2195.916" y1="2078.0947" x2="1634.0714" y2="2985.2932">
				<stop  offset="0" style="stop-color:#FFC444"/>
				<stop  offset="0.9964" style="stop-color:#F36F56"/>
			</linearGradient>
			<path style="fill:url(#SVGID_00000057868702934231779900000017842448746382433935_);" d="M2472.865,1584.861
				c0,0,19.346,52.926,8.461,83.087c-10.885,30.162-65.293,37.974-65.293,37.974l-3.801-23.778c0,0,42.785-11.568,36.458-26.125
				C2442.364,1641.463,2456.477,1593.531,2472.865,1584.861z"/>
		</g>
		<g>
			<path style="fill:#DADFE5;" d="M1926.713,1683.128c-34.639,51.485-89.883,121.387-172.643,187.77
				c-80.099,64.247-157.644,102.475-214.253,125.199c-33.309,104.354-23.235,145.556-3.274,161.713
				c56.077,45.391,251.473-57.246,345.782-215.552c54.114-90.835,64.346-182.209,65.294-239.412
				C1940.651,1696.274,1933.682,1689.701,1926.713,1683.128z"/>
			
				<linearGradient id="SVGID_00000122699737367475216130000002008512352902023099_" gradientUnits="userSpaceOnUse" x1="1946.5234" y1="1724.0579" x2="2003.2258" y2="1572.851">
				<stop  offset="0" style="stop-color:#FFC444"/>
				<stop  offset="0.9964" style="stop-color:#F36F56"/>
			</linearGradient>
			<path style="fill:url(#SVGID_00000122699737367475216130000002008512352902023099_);" d="M1925.512,1700.834
				c0,0,19.711-21.346,16.251-38.725c-3.46-17.379,16.165-13.801,32.202,7.741c16.037,21.542,9.441,37.275,9.441,37.275
				s-40.748-5.422-48.577,4.887C1927,1722.321,1925.512,1700.834,1925.512,1700.834z"/>
			<polygon style="fill:#FFFFFF;" points="1975.111,1628.325 2272.896,1250.163 2455.129,1155.242 2401.224,1356.904 
				1998.02,1646.991 			"/>
			
				<linearGradient id="SVGID_00000067224337544372136820000007973023803429238427_" gradientUnits="userSpaceOnUse" x1="1992.2938" y1="1407.3921" x2="2438.8833" y2="1407.3921">
				<stop  offset="0.494" style="stop-color:#EBEFF2"/>
				<stop  offset="1" style="stop-color:#FFFFFF"/>
			</linearGradient>
			<polygon style="fill:url(#SVGID_00000067224337544372136820000007973023803429238427_);" points="2438.883,1177.059 
				1992.294,1630.529 1998.02,1637.725 2388.454,1351.176 			"/>
			
				<linearGradient id="SVGID_00000167362733432056599660000003215408345327581577_" gradientUnits="userSpaceOnUse" x1="1914.0256" y1="1658.861" x2="2016.8947" y2="1658.861">
				<stop  offset="0.494" style="stop-color:#EBEFF2"/>
				<stop  offset="1" style="stop-color:#FFFFFF"/>
			</linearGradient>
			<path style="fill:url(#SVGID_00000167362733432056599660000003215408345327581577_);" d="M1914.026,1628.603
				c0,0,43.901-46.617,83.995-6.805c40.094,39.811,5.779,77.613-6.847,90.214L1914.026,1628.603z"/>
			<path style="opacity:0.3;fill:#C1CAD4;" d="M1829.631,1945.695c-45.034,16.534-73.783,2.715-120.278,10.31
				c-53.162,8.684-120.802,43.979-191.051,155.951c1.163,24.147,8.521,37.986,18.241,45.854
				c56.077,45.391,251.473-57.246,345.782-215.552c13.05-21.905,23.527-43.838,31.957-65.319
				C1892.591,1907.522,1864.997,1932.711,1829.631,1945.695z"/>
			
				<linearGradient id="SVGID_00000016037103833999307830000008906104620156799382_" gradientUnits="userSpaceOnUse" x1="1367.2629" y1="1736.8954" x2="1407.8185" y2="1736.8954">
				<stop  offset="0" style="stop-color:#444B8C"/>
				<stop  offset="0.9964" style="stop-color:#26264F"/>
			</linearGradient>
			<path style="fill:url(#SVGID_00000016037103833999307830000008906104620156799382_);" d="M1387.956,1721.783
				c-4.17-5.04-12.023-4.622-15.634,0.832l-3.438,5.195c-3.009,4.542-1.707,10.669,2.888,13.597l22.178,14.134l13.869-9.752
				L1387.956,1721.783z"/>
			
				<linearGradient id="SVGID_00000127021613219868845860000009231512142661540772_" gradientUnits="userSpaceOnUse" x1="1593.5509" y1="3054.9097" x2="1595.2692" y2="2955.2505">
				<stop  offset="0" style="stop-color:#311944"/>
				<stop  offset="0.9047" style="stop-color:#953671"/>
				<stop  offset="1" style="stop-color:#A03976"/>
			</linearGradient>
			<path style="fill:url(#SVGID_00000127021613219868845860000009231512142661540772_);" d="M1581.108,2864.844l-11.88,34.672
				c0,0,67.609,5.753,87.052,37.435l-107.189-2.568c-10.664-0.256-17.266-11.719-12.135-21.072l23.017-41.951L1581.108,2864.844z"/>
			
				<linearGradient id="SVGID_00000004547660505066220480000015557808957319286418_" gradientUnits="userSpaceOnUse" x1="1565.637" y1="2468.989" x2="1366.3185" y2="3025.7065">
				<stop  offset="0" style="stop-color:#444B8C"/>
				<stop  offset="0.9964" style="stop-color:#26264F"/>
			</linearGradient>
			<path style="fill:url(#SVGID_00000004547660505066220480000015557808957319286418_);" d="M1432.141,2413.062
				c99.55,0.868,177.803-2.58,231.484-5.953c44.603-2.803,79.154-5.989,94.655,14.609c22.653,30.102-11.113,90.095-29.454,124.222
				c-39.963,74.363-91.42,183.599-142.389,337.822c-15.157,0.798-30.316,1.596-45.474,2.394c-1.314-26.111-2.22-63.206,0-107.678
				c3.324-66.575,5.222-104.565,21.69-148.305c10.098-26.823,30.783-69.369,75.758-112.697
				c-174.717,46.638-270.252,53.616-286.619,20.941C1340.432,2515.739,1367.213,2473.955,1432.141,2413.062z"/>
			
				<linearGradient id="SVGID_00000031201216929652125690000012693846952171036078_" gradientUnits="userSpaceOnUse" x1="1552.8834" y1="2464.4229" x2="1353.5648" y2="3021.1411">
				<stop  offset="0" style="stop-color:#444B8C"/>
				<stop  offset="0.9964" style="stop-color:#26264F"/>
			</linearGradient>
			<path style="opacity:0.3;fill:url(#SVGID_00000031201216929652125690000012693846952171036078_);" d="M1595.948,2650.182
				c28.524-45.819,87.497-59.863,104.814-128.87c6.281-25.029,14.738-58.729-1.718-73.885
				c-36.085-33.236-136.845,73.451-237.12,44.675c-27.524-7.899-49.292-24.379-66.234-42.556
				c-38.184,41.421-52.825,71.049-43.898,88.872c16.367,32.675,111.902,25.697,286.619-20.941
				c-44.975,43.328-65.66,85.874-75.758,112.697c-16.468,43.74-18.365,81.73-21.69,148.305c-2.22,44.472-1.314,81.567,0,107.678
				c15.157-0.798,30.316-1.596,45.474-2.394c5.809-17.577,11.624-34.54,17.428-50.963
				C1565.826,2736.914,1575.669,2682.756,1595.948,2650.182z"/>
			
				<linearGradient id="SVGID_00000099644678857075053630000005965674962301739940_" gradientUnits="userSpaceOnUse" x1="1081.0359" y1="2085.645" x2="843.9154" y2="2742.0215">
				<stop  offset="0" style="stop-color:#FF9085"/>
				<stop  offset="1" style="stop-color:#FB6FBB"/>
			</linearGradient>
			<path style="fill:url(#SVGID_00000099644678857075053630000005965674962301739940_);" d="M1259.169,2709.748
				c-17.166,20.607-77.236,92.724-155.79,91.641c-67.128-0.926-82.285-54.406-158.08-87.059
				c-136.358-58.744-222.105,56.273-345.943,9.164C485.075,2680.02,408,2524.967,445.859,2460.028
				c37.845-64.915,169.855-4.311,327.614-50.402c178.228-52.071,132.704-204.036,352.818-334.489
				c120.955-71.685,229.492-88.621,301.147-99.075c42.129-6.146,175.081-25.541,187.646,8.676
				c13.494,36.752-136.474,68.413-225.327,200.367C1265.951,2368.966,1400.486,2540.094,1259.169,2709.748z"/>
			
				<linearGradient id="SVGID_00000069369286444743449360000005635262261515381639_" gradientUnits="userSpaceOnUse" x1="1083.9202" y1="2086.6875" x2="846.7999" y2="2743.0635">
				<stop  offset="0" style="stop-color:#FF9085"/>
				<stop  offset="1" style="stop-color:#FB6FBB"/>
			</linearGradient>
			<path style="opacity:0.3;fill:url(#SVGID_00000069369286444743449360000005635262261515381639_);" d="M1393.95,2018.853
				c-58.577,36.687-64.821,77.145-163.27,150.352c-105.344,78.333-131.464,56.748-207.485,116.706
				c-133.118,104.989-91.606,201.598-208.484,274.922c-8.717,5.469-141.141,85.525-277.212,22.91
				c-44.804-20.617-77.58-50.99-101.305-81.851c0.321,74.499,69.106,185.823,163.163,221.603
				c123.838,47.11,209.584-67.908,345.943-9.164c75.795,32.653,90.952,86.133,158.08,87.059
				c78.553,1.083,138.624-71.034,155.79-91.641c141.317-169.654,6.783-340.782,130.588-524.642
				c87.583-130.067,234.536-162.69,225.797-198.794C1507.169,1969.436,1438.779,1990.777,1393.95,2018.853z"/>
			
				<linearGradient id="SVGID_00000022524331357858437170000008368336461868455078_" gradientUnits="userSpaceOnUse" x1="1017.7703" y1="3184.3711" x2="1137.7449" y2="3184.3711">
				<stop  offset="0" style="stop-color:#311944"/>
				<stop  offset="1" style="stop-color:#A03976"/>
			</linearGradient>
			<path style="fill:url(#SVGID_00000022524331357858437170000008368336461868455078_);" d="M1132.485,3144.661l-16.206,39.164
				c0,0,75.69,14.949,76.45,40.256h-107.415c-9.463,0-15.517-10.08-11.072-18.434l27.624-51.909L1132.485,3144.661z"/>
			
				<linearGradient id="SVGID_00000036953827221759815150000001724999298691603116_" gradientUnits="userSpaceOnUse" x1="1371.0101" y1="2399.3079" x2="1171.6918" y2="2956.0251">
				<stop  offset="0" style="stop-color:#444B8C"/>
				<stop  offset="0.9964" style="stop-color:#26264F"/>
			</linearGradient>
			<path style="fill:url(#SVGID_00000036953827221759815150000001724999298691603116_);" d="M1449.728,2455.387
				c-57.193,122.405-114.175,247.515-170.784,375.316c-51.226,115.646-100.61,230.031-148.229,343.059
				c-14.457-1.555-28.915-3.11-43.373-4.665c-13.515-62.199-22.188-150.922,12.619-242.324
				c25.801-67.755,49.247-68.059,80.167-140.276c59.446-138.84,6.977-217.58,61.857-281.795
				C1268.78,2473.352,1323.733,2442.452,1449.728,2455.387z"/>
			
				<linearGradient id="SVGID_00000150088396651959107360000013808424910745579168_" gradientUnits="userSpaceOnUse" x1="1532.51" y1="2068.501" x2="1288.5167" y2="2401.8438">
				<stop  offset="0" style="stop-color:#AA80F9"/>
				<stop  offset="0.9964" style="stop-color:#6165D7"/>
			</linearGradient>
			<path style="fill:url(#SVGID_00000150088396651959107360000013808424910745579168_);" d="M1362.264,1998.388
				c4.126-2.15,37.554-2.99,104.242-4.582c127.316-3.04,132.343-2.71,138.62,3.448c51.347,50.37-55.06,253.848-140.286,373.222
				c-3.532,4.948-6.487,8.993-8.447,11.658c32.496,6.522,42.215,16.58,44.479,25.2c8.883,33.829-79.636,111.934-180.908,128.6
				c-55.729,9.171-93.699-3.821-134.284,27.609c-31.038,24.037-40.312,56.014-46.789,53.418
				c-8.846-3.545,1.923-65.796,28.694-125.462c31.639-70.517,65.217-91.929,96.167-135.714
				C1367.272,2209.337,1279.624,2041.443,1362.264,1998.388z"/>
			
				<linearGradient id="SVGID_00000155838459169237032370000008297855731974735546_" gradientUnits="userSpaceOnUse" x1="1480.7969" y1="2070.0498" x2="1503.1344" y2="1918.843">
				<stop  offset="0" style="stop-color:#FFC444"/>
				<stop  offset="0.9964" style="stop-color:#F36F56"/>
			</linearGradient>
			<path style="fill:url(#SVGID_00000155838459169237032370000008297855731974735546_);" d="M1502.048,1914.76
				c0,0-16.314,68.395-61.238,75.256c-44.925,6.859,77.763,33.331,96.625,32.128c18.861-1.203,16.689-27.533,0-32.128
				c-16.691-4.596,6.289-56.845,6.289-56.845L1502.048,1914.76z"/>
			
				<linearGradient id="SVGID_00000075841791112165446390000017893458868754480796_" gradientUnits="userSpaceOnUse" x1="1548.142" y1="1908.8962" x2="1314.4587" y2="1594.4548">
				<stop  offset="0" style="stop-color:#FFC444"/>
				<stop  offset="0.9964" style="stop-color:#F36F56"/>
			</linearGradient>
			<path style="fill:url(#SVGID_00000075841791112165446390000017893458868754480796_);" d="M1550.779,1768.9
				c6.483,13.397,76.461,126.135,37.332,170.366c-39.129,44.23-110.317-18.411-110.317-18.411s-11.271,8.643-34.198-9.484
				C1420.668,1893.244,1550.779,1768.9,1550.779,1768.9z"/>
			
				<linearGradient id="SVGID_00000031889200801572852110000011130888010239401919_" gradientUnits="userSpaceOnUse" x1="1374.5861" y1="1809.2025" x2="1525.7019" y2="1809.2025">
				<stop  offset="0" style="stop-color:#AA80F9"/>
				<stop  offset="0.9964" style="stop-color:#6165D7"/>
			</linearGradient>
			<path style="fill:url(#SVGID_00000031889200801572852110000011130888010239401919_);" d="M1428.621,1906.748
				c-3.354-3.437-84.836-92.141-41.231-162.912c43.605-70.771,138.312-2.73,138.312-2.73L1428.621,1906.748z"/>
			
				<linearGradient id="SVGID_00000075847461040276723860000003871780141320620212_" gradientUnits="userSpaceOnUse" x1="1590.2185" y1="1743.1486" x2="1251.1478" y2="1979.1232">
				<stop  offset="0" style="stop-color:#444B8C"/>
				<stop  offset="0.9964" style="stop-color:#26264F"/>
			</linearGradient>
			<path style="fill:url(#SVGID_00000075847461040276723860000003871780141320620212_);" d="M1417.133,1906.748l23.753,15.868
				c0,0,24.589-64.026,87.07-110.994c47.435-35.657,84.451-68.701,99.529-82.548c3.133-2.878,1.701-8.079-2.457-8.979
				l-63.216-13.694c-17.958-3.89-36.576,2.577-48.208,16.802C1483.701,1759.771,1429.229,1834.522,1417.133,1906.748z"/>
			
				<linearGradient id="SVGID_00000075880618444926901190000001231395864819485089_" gradientUnits="userSpaceOnUse" x1="706.9451" y1="1669.8348" x2="1385.7158" y2="1669.8348">
				<stop  offset="0.0036" style="stop-color:#E38DDD"/>
				<stop  offset="0.7059" style="stop-color:#AC79EF"/>
				<stop  offset="1" style="stop-color:#9571F6"/>
			</linearGradient>
			<path style="fill:url(#SVGID_00000075880618444926901190000001231395864819485089_);" d="M1385.716,1726.827
				c-6.158-22.574-18.198-56.646-43.215-91.488c-13.993-19.487-31.798-38.87-104.155-91.589
				c-71.158-51.847-106.738-77.77-128.868-82.021c-35.392-6.8-70.354,1.288-168.76,57.837
				c-157.872,90.723-236.81,136.084-233.684,186.717c3.792,61.424,98.523,126.253,172.97,114.551
				c79.416-12.482,116.741-109.063,149.469-95.673c30.296,12.396-1.15,95.375,45.269,134.62
				c32.446,27.431,94.994,26.783,132.878-1.146c69.36-51.133,35.819-178.8,79.04-191.3c16.975-4.909,41.124,18.561,64.854,40.342
				c12.462,11.44,21.644,22.397,27.932,30.679C1381.536,1734.514,1383.627,1730.67,1385.716,1726.827z"/>
			
				<linearGradient id="SVGID_00000141429902360248641400000005260351677652675504_" gradientUnits="userSpaceOnUse" x1="706.9469" y1="1724.3571" x2="1380.5981" y2="1724.3571">
				<stop  offset="0.0036" style="stop-color:#E38DDD"/>
				<stop  offset="0.7059" style="stop-color:#AC79EF"/>
				<stop  offset="1" style="stop-color:#9571F6"/>
			</linearGradient>
			<path style="opacity:0.3;fill:url(#SVGID_00000141429902360248641400000005260351677652675504_);" d="M1302.697,1628.389
				c-19.755-7.374-47.658-9.782-74.457,0c-63.891,23.322-69.418,102.588-103.113,104.412
				c-46.527,2.518-56.359-147.52-123.698-162.833c-81.686-18.575-165.133,179.933-241.703,160.371
				c-21.334-5.451-36.159-26.311-46.581-50.775c-4.588,8.928-6.665,17.742-6.111,26.719c3.792,61.424,98.523,126.253,172.97,114.551
				c79.416-12.482,116.741-109.063,149.469-95.673c30.296,12.396-1.15,95.375,45.269,134.62
				c32.446,27.431,94.994,26.783,132.878-1.146c69.36-51.133,35.819-178.8,79.04-191.3c16.975-4.909,41.124,18.561,64.854,40.342
				c12.462,11.44,21.644,22.397,27.932,30.679c0.383-0.706,0.767-1.411,1.151-2.117
				C1369.406,1682.941,1340.677,1642.565,1302.697,1628.389z"/>
			
				<linearGradient id="SVGID_00000026869367524618392750000008222404510897701000_" gradientUnits="userSpaceOnUse" x1="1491.3619" y1="2038.3816" x2="1247.3685" y2="2371.7246">
				<stop  offset="0" style="stop-color:#AA80F9"/>
				<stop  offset="0.9964" style="stop-color:#6165D7"/>
			</linearGradient>
			<path style="opacity:0.3;fill:url(#SVGID_00000026869367524618392750000008222404510897701000_);" d="M1260.887,2454.301
				c43.097-55.104,136.055-36.276,152.925-85.913c11.566-34.029-24.715-64.668-48.111-109.969
				c-26.742-51.779-41.514-132.264,2.185-261.134c-2.955,0.33-4.833,0.692-5.621,1.103c-82.641,43.055,5.007,210.949-98.513,357.398
				c-30.95,43.785-64.529,65.197-96.167,135.714c-26.771,59.665-37.54,121.917-28.694,125.462
				c6.477,2.596,15.751-29.382,46.789-53.418c18.357-14.217,36.186-19.334,55.358-21.536
				C1237.08,2497.723,1247.688,2471.176,1260.887,2454.301z"/>
			
				<linearGradient id="SVGID_00000142861016363479028540000018097630448209784248_" gradientUnits="userSpaceOnUse" x1="1059.8187" y1="2193.5945" x2="1444.1992" y2="2193.5945">
				<stop  offset="0.494" style="stop-color:#EBEFF2"/>
				<stop  offset="1" style="stop-color:#FFFFFF"/>
			</linearGradient>
			<path style="fill:url(#SVGID_00000142861016363479028540000018097630448209784248_);" d="M1217.93,2393.588
				c-9.559-1.034-108.93-13.295-145.48-91.64c-21.443-45.964-10.172-90.902-5.22-109.513
				c35.884-134.853,218.592-231.312,334.163-188.608c18.468,6.824,38.418,14.195,42.201,30.072
				c14.706,61.694-243.798,129.641-248.918,249.431c-1.666,38.992,24.017,71.725,43.873,91.931
				C1231.676,2381.37,1224.803,2387.479,1217.93,2393.588z"/>
			
				<linearGradient id="SVGID_00000067929580326461724900000002514321989988498612_" gradientUnits="userSpaceOnUse" x1="1315.7366" y1="2328.0771" x2="1133.6008" y2="2549.7332">
				<stop  offset="0" style="stop-color:#FFC444"/>
				<stop  offset="0.9964" style="stop-color:#F36F56"/>
			</linearGradient>
			<path style="fill:url(#SVGID_00000067929580326461724900000002514321989988498612_);" d="M1219.349,2397.253
				c0,0,9.824,14.115,29.267,7.527c19.443-6.589,26.599-27.187,36.898-25.7c10.299,1.487,45.417-5.35,45.417-5.35
				s-16.485-11.991-45.87-14.722c-29.386-2.731-50.344,13.463-50.344,13.463S1205.958,2381.48,1219.349,2397.253z"/>
		</g>
		<g>
			
				<linearGradient id="SVGID_00000160910438521715566580000004363454083398089645_" gradientUnits="userSpaceOnUse" x1="2907.7803" y1="761.1587" x2="3021.1794" y2="1828.1479">
				<stop  offset="0" style="stop-color:#FFC444"/>
				<stop  offset="0.9964" style="stop-color:#F36F56"/>
			</linearGradient>
			<path style="fill:url(#SVGID_00000160910438521715566580000004363454083398089645_);" d="M3118.928,1357.943
				c53.807-11.32,106.925-26.352,157.969-46.606c5.417-102.505-15.51-202.883-29.86-271.687
				c-62.819-301.208-268.866-520.194-307.151-501.456c-29.009,14.198,51.472,158.428-10.31,221.645
				c-80.236,82.1-318.335-56.431-341.026-18.424C2553.694,799.8,3123.845,1112.796,3118.928,1357.943z"/>
			
				<linearGradient id="SVGID_00000106838668594505286060000002133114687221992097_" gradientUnits="userSpaceOnUse" x1="2587.0156" y1="1046.3027" x2="3227.1196" y2="1046.3027">
				<stop  offset="0" style="stop-color:#FFC444"/>
				<stop  offset="0.9964" style="stop-color:#F36F56"/>
			</linearGradient>
			<path style="opacity:0.3;fill:url(#SVGID_00000106838668594505286060000002133114687221992097_);" d="M3118.928,1357.943
				c35.726-7.516,71.148-16.669,105.865-27.897c5.47-73.765,10.469-247.492-99.344-348.563
				c-100.609-92.599-211.338-44.814-350.507-139.173c-39.907-27.057-72.276-59.128-98.654-92.735
				c-45.072-13.042-79.751-21.537-87.737-8.162C2553.694,799.8,3123.845,1112.796,3118.928,1357.943z"/>
		</g>
		<g>
			
				<linearGradient id="SVGID_00000034806778700561610010000013851551052366499217_" gradientUnits="userSpaceOnUse" x1="2360.4236" y1="2476.5569" x2="2283.1057" y2="1430.1887">
				<stop  offset="0" style="stop-color:#FFC444"/>
				<stop  offset="0.9964" style="stop-color:#F36F56"/>
			</linearGradient>
			<path style="fill:url(#SVGID_00000034806778700561610010000013851551052366499217_);" d="M2239.972,2307.885
				c-128.16-7.81-233.967,39.827-330.068,109.338c15.602,102.791,31.004,205.646,43.43,308.872
				c47.974-15.513,99.484-21.274,156.674-12.691c241.924,36.308,425.146,304.205,478.012,258.604
				c35.315-30.461-46.395-150.04,1.782-199.97c55.539-57.56,216.644,46.933,236.684,18.684
				C2857.538,2746.951,2589.135,2329.162,2239.972,2307.885z"/>
			
				<linearGradient id="SVGID_00000070838058358747697310000011900130343126853509_" gradientUnits="userSpaceOnUse" x1="2330.7234" y1="2478.7512" x2="2253.4055" y2="1432.382">
				<stop  offset="0" style="stop-color:#FFC444"/>
				<stop  offset="0.9964" style="stop-color:#F36F56"/>
			</linearGradient>
			<path style="opacity:0.3;fill:url(#SVGID_00000070838058358747697310000011900130343126853509_);" d="M2760.325,2782.99
				c-77.02-134.625-194.157-269.385-365.711-315.216c-170.573-45.568-338.29,11.909-466.625,70.338
				c9.15,62.568,17.79,125.208,25.346,187.983c47.974-15.513,99.484-21.274,156.674-12.691
				c241.924,36.308,425.146,304.205,478.012,258.604c35.315-30.461-46.395-150.04,1.782-199.97
				C2625.106,2735.449,2703.057,2764.336,2760.325,2782.99z"/>
		</g>
		<path style="fill:#C1CAD4;" d="M1884.717,2940.211h-453.728v160.777h423.228
			C1865.806,3047.664,1876.063,2994.068,1884.717,2940.211z"/>
	</g>
</g>
</svg>
